<svg width="1280" height="720" xmlns="http://www.w3.org/2000/svg" xmlns:xlink="http://www.w3.org/1999/xlink" overflow="hidden"><defs><filter id="fx0" x="-10%" y="-10%" width="120%" height="120%" filterUnits="userSpaceOnUse" primitiveUnits="userSpaceOnUse"><feComponentTransfer color-interpolation-filters="sRGB"><feFuncR type="discrete" tableValues="0 0"/><feFuncG type="discrete" tableValues="0 0"/><feFuncB type="discrete" tableValues="0 0"/><feFuncA type="linear" slope="0.4" intercept="0"/></feComponentTransfer><feGaussianBlur stdDeviation="2.22222 2.22222"/></filter><filter id="fx1" x="-10%" y="-10%" width="120%" height="120%" filterUnits="userSpaceOnUse" primitiveUnits="userSpaceOnUse"><feComponentTransfer color-interpolation-filters="sRGB"><feFuncR type="discrete" tableValues="0 0"/><feFuncG type="discrete" tableValues="0 0"/><feFuncB type="discrete" tableValues="0 0"/><feFuncA type="linear" slope="0.4" intercept="0"/></feComponentTransfer><feGaussianBlur stdDeviation="2.22222 2.22222"/></filter><filter id="fx2" x="-10%" y="-10%" width="120%" height="120%" filterUnits="userSpaceOnUse" primitiveUnits="userSpaceOnUse"><feComponentTransfer color-interpolation-filters="sRGB"><feFuncR type="discrete" tableValues="0 0"/><feFuncG type="discrete" tableValues="0 0"/><feFuncB type="discrete" tableValues="0 0"/><feFuncA type="linear" slope="0.4" intercept="0"/></feComponentTransfer><feGaussianBlur stdDeviation="2.22222 2.22222"/></filter><filter id="fx3" x="-10%" y="-10%" width="120%" height="120%" filterUnits="userSpaceOnUse" primitiveUnits="userSpaceOnUse"><feComponentTransfer color-interpolation-filters="sRGB"><feFuncR type="discrete" tableValues="0 0"/><feFuncG type="discrete" tableValues="0 0"/><feFuncB type="discrete" tableValues="0 0"/><feFuncA type="linear" slope="0.4" intercept="0"/></feComponentTransfer><feGaussianBlur stdDeviation="2.22222 2.22222"/></filter><filter id="fx4" x="-10%" y="-10%" width="120%" height="120%" filterUnits="userSpaceOnUse" primitiveUnits="userSpaceOnUse"><feComponentTransfer color-interpolation-filters="sRGB"><feFuncR type="discrete" tableValues="0 0"/><feFuncG type="discrete" tableValues="0 0"/><feFuncB type="discrete" tableValues="0 0"/><feFuncA type="linear" slope="0.4" intercept="0"/></feComponentTransfer><feGaussianBlur stdDeviation="2.22222 2.22222"/></filter><filter id="fx5" x="-10%" y="-10%" width="120%" height="120%" filterUnits="userSpaceOnUse" primitiveUnits="userSpaceOnUse"><feComponentTransfer color-interpolation-filters="sRGB"><feFuncR type="discrete" tableValues="0 0"/><feFuncG type="discrete" tableValues="0 0"/><feFuncB type="discrete" tableValues="0 0"/><feFuncA type="linear" slope="0.4" intercept="0"/></feComponentTransfer><feGaussianBlur stdDeviation="2.22222 2.22222"/></filter><filter id="fx6" x="-10%" y="-10%" width="120%" height="120%" filterUnits="userSpaceOnUse" primitiveUnits="userSpaceOnUse"><feComponentTransfer color-interpolation-filters="sRGB"><feFuncR type="discrete" tableValues="0 0"/><feFuncG type="discrete" tableValues="0 0"/><feFuncB type="discrete" tableValues="0 0"/><feFuncA type="linear" slope="0.4" intercept="0"/></feComponentTransfer><feGaussianBlur stdDeviation="2.22222 2.22222"/></filter><filter id="fx7" x="-10%" y="-10%" width="120%" height="120%" filterUnits="userSpaceOnUse" primitiveUnits="userSpaceOnUse"><feComponentTransfer color-interpolation-filters="sRGB"><feFuncR type="discrete" tableValues="0 0"/><feFuncG type="discrete" tableValues="0 0"/><feFuncB type="discrete" tableValues="0 0"/><feFuncA type="linear" slope="0.4" intercept="0"/></feComponentTransfer><feGaussianBlur stdDeviation="2.22222 2.22222"/></filter><filter id="fx8" x="-10%" y="-10%" width="120%" height="120%" filterUnits="userSpaceOnUse" primitiveUnits="userSpaceOnUse"><feComponentTransfer color-interpolation-filters="sRGB"><feFuncR type="discrete" tableValues="0 0"/><feFuncG type="discrete" tableValues="0 0"/><feFuncB type="discrete" tableValues="0 0"/><feFuncA type="linear" slope="0.4" intercept="0"/></feComponentTransfer><feGaussianBlur stdDeviation="2.22222 2.22222"/></filter><filter id="fx9" x="-10%" y="-10%" width="120%" height="120%" filterUnits="userSpaceOnUse" primitiveUnits="userSpaceOnUse"><feComponentTransfer color-interpolation-filters="sRGB"><feFuncR type="discrete" tableValues="0 0"/><feFuncG type="discrete" tableValues="0 0"/><feFuncB type="discrete" tableValues="0 0"/><feFuncA type="linear" slope="0.4" intercept="0"/></feComponentTransfer><feGaussianBlur stdDeviation="2.22222 2.22222"/></filter><filter id="fx10" x="-10%" y="-10%" width="120%" height="120%" filterUnits="userSpaceOnUse" primitiveUnits="userSpaceOnUse"><feComponentTransfer color-interpolation-filters="sRGB"><feFuncR type="discrete" tableValues="0 0"/><feFuncG type="discrete" tableValues="0 0"/><feFuncB type="discrete" tableValues="0 0"/><feFuncA type="linear" slope="0.4" intercept="0"/></feComponentTransfer><feGaussianBlur stdDeviation="1.77778 1.77778"/></filter><filter id="fx11" x="-10%" y="-10%" width="120%" height="120%" filterUnits="userSpaceOnUse" primitiveUnits="userSpaceOnUse"><feComponentTransfer color-interpolation-filters="sRGB"><feFuncR type="discrete" tableValues="0 0"/><feFuncG type="discrete" tableValues="0 0"/><feFuncB type="discrete" tableValues="0 0"/><feFuncA type="linear" slope="0.4" intercept="0"/></feComponentTransfer><feGaussianBlur stdDeviation="2.22222 2.22222"/></filter><clipPath id="clip12"><rect x="0" y="0" width="1280" height="720"/></clipPath><clipPath id="clip13"><path d="M277.845 208C272.96 208 269 211.96 269 216.845L269 423.155C269 428.04 272.96 432 277.845 432L1254.15 432C1259.04 432 1263 428.04 1263 423.155L1263 216.845C1263 211.96 1259.04 208 1254.15 208ZM1.90735e-05 1.07288e-05 1280 1.07288e-05 1280 720 1.90735e-05 720Z" fill-rule="evenodd" clip-rule="evenodd"/></clipPath></defs><g clip-path="url(#clip12)"><rect x="0" y="0" width="1280" height="720" fill="#FFFFFF"/><g filter="url(#fx0)" transform="translate(7 -5)"><g><path d="M7.63 21.8927C7.63 14.22 13.85 8 21.5227 8L235.477 8C243.15 8 249.37 14.22 249.37 21.8927L249.37 708.107C249.37 715.78 243.15 722 235.477 722L21.5227 722C13.85 722 7.63 715.78 7.63 708.107Z" fill="#FFFFFF" fill-rule="evenodd"/></g></g><path d="M17 23.6203C17 16.098 23.098 10 30.6203 10L240.38 10C247.902 10 254 16.098 254 23.6203L254 696.38C254 703.902 247.902 710 240.38 710L30.6203 710C23.098 710 17 703.902 17 696.38Z" fill="#FFFFFF" fill-rule="evenodd"/><g filter="url(#fx1)" transform="translate(19 119)"><g><path d="M7.89 28.554C7.89 16.9483 17.2983 7.54 28.904 7.54L202.096 7.54C213.702 7.54 223.11 16.9483 223.11 28.554L223.11 237.446C223.11 249.052 213.702 258.46 202.096 258.46L28.904 258.46C17.2983 258.46 7.89 249.052 7.89 237.446Z" fill="#FFFFFF" fill-rule="evenodd"/></g></g><path d="M29 149.602C29 138.224 38.2238 129 49.602 129L219.398 129C230.776 129 240 138.224 240 149.602L240 354.398C240 365.776 230.776 375 219.398 375L49.602 375C38.2238 375 29 365.776 29 354.398Z" fill="#FFFFFF" fill-rule="evenodd"/><path d="M37 157.04C37 146.524 45.5245 138 56.0399 138L212.96 138C223.476 138 232 146.524 232 157.04L232 346.96C232 357.476 223.476 366 212.96 366L56.0399 366C45.5245 366 37 357.476 37 346.96Z" fill="#747474" fill-rule="evenodd"/><path d="M44 163.673C44 153.912 51.9124 146 61.6729 146L207.327 146C217.088 146 225 153.912 225 163.673L225 339.327C225 349.088 217.088 357 207.327 357L61.6729 357C51.9124 357 44 349.088 44 339.327Z" fill="#FFFFFF" fill-rule="evenodd"/><g filter="url(#fx2)" transform="translate(20 382)"><g><path d="M7.89 12.407C7.89 9.71902 10.069 7.54001 12.7569 7.54001L218.243 7.54001C220.931 7.54001 223.11 9.71902 223.11 12.407L223.11 49.5931C223.11 52.281 220.931 54.46 218.243 54.46L12.7569 54.46C10.069 54.46 7.89 52.281 7.89 49.5931Z" fill="#FFFFFF" fill-rule="evenodd"/></g></g><path d="M30 394.772C30 392.136 32.1363 390 34.7715 390L236.229 390C238.864 390 241 392.136 241 394.772L241 431.228C241 433.864 238.864 436 236.229 436L34.7715 436C32.1363 436 30 433.864 30 431.228Z" fill="#FFFFFF" fill-rule="evenodd"/><g filter="url(#fx3)" transform="translate(258 3)"><g><path d="M7.63 26.9575C7.63 16.6146 16.0146 8.23 26.3575 8.23L230.643 8.23C240.985 8.23 249.37 16.6146 249.37 26.9575L249.37 170.043C249.37 180.385 240.985 188.77 230.643 188.77L26.3575 188.77C16.0146 188.77 7.63 180.385 7.63 170.043Z" fill="#FFFFFF" fill-rule="evenodd"/></g></g><path d="M268 31.3603C268 21.2202 276.22 13 286.36 13L486.64 13C496.78 13 505 21.2202 505 31.3603L505 171.64C505 181.78 496.78 190 486.64 190L286.36 190C276.22 190 268 181.78 268 171.64Z" fill="#FFFFFF" fill-rule="evenodd"/><g filter="url(#fx4)" transform="translate(20 442)"><g><path d="M7.89 22.0543C7.89 14.0548 14.3748 7.57001 22.3743 7.57001L208.626 7.57001C216.625 7.57001 223.11 14.0548 223.11 22.0543L223.11 240.946C223.11 248.945 216.625 255.43 208.626 255.43L22.3743 255.43C14.3748 255.43 7.89 248.945 7.89 240.946Z" fill="#FFFFFF" fill-rule="evenodd"/></g></g><path d="M30 466.2C30 458.358 36.3577 452 44.2002 452L226.8 452C234.642 452 241 458.358 241 466.2L241 680.8C241 688.642 234.642 695 226.8 695L44.2002 695C36.3577 695 30 688.642 30 680.8Z" fill="#FFFFFF" fill-rule="evenodd"/><g filter="url(#fx5)" transform="translate(255 441)"><g><path d="M8.12 18.7215C8.12 13.0487 12.7187 8.45001 18.3915 8.45001L495.609 8.45001C501.281 8.45001 505.88 13.0487 505.88 18.7215L505.88 258.279C505.88 263.951 501.281 268.55 495.609 268.55L18.3915 268.55C12.7187 268.55 8.12 263.951 8.12 258.279Z" fill="#FFFFFF" fill-rule="evenodd"/></g></g><path d="M268 462.07C268 456.509 272.509 452 278.07 452L745.93 452C751.491 452 756 456.509 756 462.07L756 696.93C756 702.491 751.491 707 745.93 707L278.07 707C272.509 707 268 702.491 268 696.93Z" fill="#FFFFFF" fill-rule="evenodd"/><g filter="url(#fx6)" transform="translate(760 441)"><g><path d="M8.10999 18.7213C8.10999 13.0486 12.7086 8.45001 18.3812 8.45001L496.619 8.45001C502.291 8.45001 506.89 13.0486 506.89 18.7213L506.89 258.279C506.89 263.951 502.291 268.55 496.619 268.55L18.3812 268.55C12.7086 268.55 8.10999 263.951 8.10999 258.279Z" fill="#FFFFFF" fill-rule="evenodd"/></g></g><path d="M773 462.07C773 456.508 777.508 452 783.07 452L1251.93 452C1257.49 452 1262 456.508 1262 462.07L1262 696.93C1262 702.492 1257.49 707 1251.93 707L783.07 707C777.508 707 773 702.492 773 696.93Z" fill="#FFFFFF" fill-rule="evenodd"/><g><g><g><path d="M383.69 68.1667C386.658 65.8228 389.491 63.3112 392.173 60.6443 396.062 56.9397 399.5 52.7899 402.418 48.2807 405.126 43.9203 407.712 38.2599 405.932 33.087 404.49 28.8078 400.488 25.1719 395.891 24.7318 390.081 24.1562 385.877 29.0719 383.5 33.7776 381.327 29.4714 377.731 25.0297 372.538 24.7047 367.927 24.4203 363.634 27.6635 361.651 31.6922 359.166 36.75 361.19 42.4375 363.804 46.9807 366.512 51.7203 370.114 55.8844 373.919 59.737 376.919 62.8059 380.12 65.6718 383.5 68.3156ZM372.667 45.1458 374.698 39.0521 375.903 35.4297C376.215 34.4885 376.695 33.2292 377.995 33.7708 378.781 34.1026 378.828 34.9151 378.964 35.626L379.526 38.6255 381.151 47.2922 382.227 53.0474 386.154 42.6609 387.021 40.3724C387.271 39.6953 387.529 39.0182 388.375 38.9437 389.452 38.8354 389.77 39.7562 390.007 40.5687L390.84 43.426 392.492 49.1068 394.123 47.3125C394.645 46.6295 395.233 45.9991 395.877 45.4302 396.554 44.9562 397.807 45.1729 398.585 45.1729L401.104 45.1729C400.603 46.0734 400.048 46.9807 399.445 47.8812L397.245 47.8812C395.803 49.4724 394.421 51.1651 392.891 52.675 392.411 53.2486 391.557 53.3245 390.984 52.8445 390.871 52.7501 390.774 52.638 390.697 52.5125 390.55 52.2213 390.443 51.9116 390.379 51.5917L389.248 47.7255 388.328 44.5568C386.601 49.1135 384.942 53.6771 383.161 58.2135 383.062 58.5831 382.846 58.9108 382.545 59.1479 381.929 59.5714 381.086 59.4149 380.662 58.7985 380.554 58.641 380.481 58.4624 380.446 58.2745 380.291 57.6516 380.209 57.0016 380.087 56.3786L378.374 47.238 377.095 40.4062 375.185 46.1411C374.894 46.9943 374.664 47.8271 373.567 47.8812 372.572 47.9286 371.57 47.8812 370.581 47.8812L367.534 47.8812C366.939 46.9807 366.377 46.0734 365.876 45.1729Z"/></g></g></g><g filter="url(#fx7)" transform="translate(511 3)"><g><path d="M7.62 26.9573C7.62 16.6145 16.0045 8.23 26.3473 8.23L231.653 8.23C241.995 8.23 250.38 16.6145 250.38 26.9573L250.38 170.043C250.38 180.385 241.995 188.77 231.653 188.77L26.3473 188.77C16.0045 188.77 7.62 180.385 7.62 170.043Z" fill="#FFFFFF" fill-rule="evenodd"/></g></g><path d="M521 31.3601C521 21.2201 529.22 13 539.36 13L740.64 13C750.78 13 759 21.2201 759 31.3601L759 171.64C759 181.78 750.78 190 740.64 190L539.36 190C529.22 190 521 181.78 521 171.64Z" fill="#FFFFFF" fill-rule="evenodd"/><g filter="url(#fx8)" transform="translate(765 3)"><g><path d="M7.63 26.9575C7.63 16.6146 16.0146 8.23 26.3575 8.23L230.643 8.23C240.985 8.23 249.37 16.6146 249.37 26.9575L249.37 170.043C249.37 180.385 240.985 188.77 230.643 188.77L26.3575 188.77C16.0146 188.77 7.63 180.385 7.63 170.043Z" fill="#FFFFFF" fill-rule="evenodd"/></g></g><path d="M775 31.3603C775 21.2202 783.22 13 793.36 13L993.64 13C1003.78 13 1012 21.2202 1012 31.3603L1012 171.64C1012 181.78 1003.78 190 993.64 190L793.36 190C783.22 190 775 181.78 775 171.64Z" fill="#FFFFFF" fill-rule="evenodd"/><g filter="url(#fx9)" transform="translate(1019 3)"><g><path d="M7.63 26.9575C7.63 16.6146 16.0146 8.23 26.3575 8.23L230.643 8.23C240.985 8.23 249.37 16.6146 249.37 26.9575L249.37 170.043C249.37 180.385 240.985 188.77 230.643 188.77L26.3575 188.77C16.0146 188.77 7.63 180.385 7.63 170.043Z" fill="#FFFFFF" fill-rule="evenodd"/></g></g><path d="M1029 31.3603C1029 21.2202 1037.22 13 1047.36 13L1247.64 13C1257.78 13 1266 21.2202 1266 31.3603L1266 171.64C1266 181.78 1257.78 190 1247.64 190L1047.36 190C1037.22 190 1029 181.78 1029 171.64Z" fill="#FFFFFF" fill-rule="evenodd"/><g><g><g><path d="M17.6042 35.2083C17.6042 27.0156 24.3073 20.3125 32.5 20.3125 40.6927 20.3125 47.3958 27.0156 47.3958 35.2083 47.3958 43.401 40.6927 50.1042 32.5 50.1042 24.3073 50.1042 17.6042 43.401 17.6042 35.2083ZM33.8542 16.3177 33.8542 13.5417 36.5625 13.5417C37.3073 13.5417 37.9167 12.9323 37.9167 12.1875 37.9167 11.4427 37.3073 10.8333 36.5625 10.8333L28.4375 10.8333C27.6927 10.8333 27.0833 11.4427 27.0833 12.1875 27.0833 12.9323 27.6927 13.5417 28.4375 13.5417L31.1458 13.5417 31.1458 16.3177C21.3281 16.9948 13.5417 25.1875 13.5417 35.2083 13.5417 40.3542 15.5729 45.026 18.9583 48.4792L16.3854 53.5573C16.0469 54.2344 16.3177 55.0469 16.9948 55.3854 17.1979 55.4531 17.401 55.5208 17.6042 55.5208 18.0781 55.5208 18.5521 55.25 18.8229 54.776L21.0573 50.3073C24.2396 52.7448 28.1667 54.1667 32.5 54.1667 36.8333 54.1667 40.7604 52.7448 43.9427 50.3073L46.1771 54.776C46.4479 55.25 46.9219 55.5208 47.3958 55.5208 47.599 55.5208 47.8021 55.4531 48.0052 55.3854 48.6823 55.0469 48.9531 54.2344 48.6146 53.5573L46.0417 48.4792C49.3594 45.0937 51.4583 40.3542 51.4583 35.2083 51.4583 25.1875 43.6719 16.9948 33.8542 16.3177Z" transform="matrix(1 0 0 1.01538 606 11)"/><path d="M31.1458 33.8542 21.6667 33.8542 21.6667 36.5625 32.5 36.5625C33.2448 36.5625 33.8542 35.9531 33.8542 35.2083L33.8542 24.375 31.1458 24.375 31.1458 33.8542Z" transform="matrix(1 0 0 1.01538 606 11)"/><path d="M54.3021 16.3854 48.6823 10.7656C47.599 9.68229 45.9062 9.68229 44.8229 10.7656L41.3021 14.2188 50.7812 23.6979 54.3021 20.1771C55.3177 19.1615 55.3177 17.401 54.3021 16.3854Z" transform="matrix(1 0 0 1.01538 606 11)"/><path d="M23.6979 14.2188 20.1771 10.6979C19.0938 9.61458 17.401 9.61458 16.3177 10.6979L10.6979 16.3177C9.61458 17.401 9.61458 19.0938 10.6979 20.1771L14.2188 23.6979 23.6979 14.2188Z" transform="matrix(1 0 0 1.01538 606 11)"/></g></g></g><g><g><g><path d="M880.938 25.875C882.106 25.875 883 24.9813 883 23.8125L883 19.6875C883 18.5187 882.106 17.625 880.938 17.625 879.769 17.625 878.875 18.5187 878.875 19.6875L878.875 23.8125C878.875 24.9813 879.769 25.875 880.938 25.875Z"/><path d="M874.75 38.25 913.25 38.25 913.25 60.25 874.75 60.25 874.75 38.25ZM870.625 64.375 917.375 64.375 917.375 34.125 870.625 34.125 870.625 64.375Z"/><path d="M907.062 25.875C908.231 25.875 909.125 24.9813 909.125 23.8125L909.125 19.6875C909.125 18.5187 908.231 17.625 907.062 17.625 905.894 17.625 905 18.5187 905 19.6875L905 23.8125C905 24.9813 905.894 25.875 907.062 25.875Z"/><path d="M911.875 21.75 911.875 23.8125C911.875 26.4937 909.744 28.625 907.062 28.625 904.381 28.625 902.25 26.4937 902.25 23.8125L902.25 21.75 885.75 21.75 885.75 23.8125C885.75 26.4937 883.619 28.625 880.938 28.625 878.256 28.625 876.125 26.4937 876.125 23.8125L876.125 21.75 870.625 21.75 870.625 31.375 917.375 31.375 917.375 21.75 911.875 21.75Z"/></g></g></g><g clip-path="url(#clip13)"><g filter="url(#fx10)" transform="translate(264 203)"><g><path d="M7.82843 16.6738C7.82843 11.7886 11.7886 7.82843 16.6738 7.82843L992.983 7.82843C997.868 7.82843 1001.83 11.7886 1001.83 16.6738L1001.83 222.983C1001.83 227.868 997.868 231.828 992.983 231.828L16.6738 231.828C11.7886 231.828 7.82843 227.868 7.82843 222.983Z" stroke="#D9D9D9" stroke-width="2" stroke-miterlimit="8" fill="#FFFFFF" fill-rule="evenodd"/></g></g></g><path d="M269 216.845C269 211.96 272.96 208 277.845 208L1254.15 208C1259.04 208 1263 211.96 1263 216.845L1263 423.155C1263 428.04 1259.04 432 1254.15 432L277.845 432C272.96 432 269 428.04 269 423.155Z" stroke="#D9D9D9" stroke-width="2" stroke-miterlimit="8" fill="#FFFFFF" fill-rule="evenodd"/><g><g><g><path d="M1169.25 20.875 1169 20.875C1168.42 20.8906 1167.97 21.3694 1167.98 21.9464L1167.98 25.5328C1167.97 26.1097 1168.42 26.5885 1169 26.6042L1169.25 26.6042C1169.83 26.5885 1170.28 26.1097 1170.27 25.5328L1170.27 21.9464C1170.28 21.3694 1169.83 20.8906 1169.25 20.875Z"/><path d="M1128 20.875 1127.75 20.875C1127.17 20.8906 1126.72 21.3694 1126.73 21.9464L1126.73 25.5328C1126.72 26.1097 1127.17 26.5885 1127.75 26.6042L1128 26.6042C1128.58 26.5885 1129.03 26.1097 1129.02 25.5328L1129.02 21.9464C1129.03 21.3694 1128.58 20.8906 1128 20.875Z"/><path d="M1170.84 22.5938 1170.84 24.8854C1171.48 24.8854 1171.99 24.3724 1171.99 23.7396 1171.99 23.1067 1171.48 22.5938 1170.84 22.5938Z"/><path d="M1126.16 24.8854 1126.16 22.5938C1125.52 22.5938 1125.01 23.1067 1125.01 23.7396 1125.01 24.3724 1125.52 24.8854 1126.16 24.8854Z"/><path d="M1166.39 19.1562 1166.13 19.1562C1165.52 19.2225 1165.07 19.7617 1165.11 20.3766L1165.11 22.5938 1131.89 22.5938 1131.89 20.3766C1131.93 19.7617 1131.48 19.2225 1130.87 19.1562L1130.61 19.1562C1130 19.2225 1129.55 19.7617 1129.59 20.3766L1129.59 27.1026C1129.55 27.7175 1130 28.2567 1130.61 28.3229L1130.87 28.3229C1131.48 28.2566 1131.93 27.7175 1131.89 27.1026L1131.89 24.8854 1134.75 24.8854 1134.75 33.4792C1134.75 34.295 1135.19 35.0478 1135.9 35.4557L1143.92 40.1823 1143.92 45.7797 1135.8 51.0333C1135.14 51.4554 1134.75 52.1803 1134.75 52.9583L1134.75 63.8438 1139.33 63.8438 1139.33 54.2073 1143.92 51.2396 1153.08 51.2396 1157.67 54.2073 1157.67 63.8438 1162.25 63.8438 1162.25 52.9583C1162.25 52.1803 1161.86 51.4554 1161.2 51.0333L1153.08 45.7797 1153.08 40.1823 1161.1 35.4557C1161.81 35.0478 1162.25 34.295 1162.25 33.4792L1162.25 24.8854 1165.11 24.8854 1165.11 27.1026C1165.07 27.7175 1165.52 28.2567 1166.13 28.3229L1166.39 28.3229C1167 28.2566 1167.45 27.7175 1167.41 27.1026L1167.41 20.3766C1167.45 19.7617 1167 19.2225 1166.39 19.1562ZM1157.67 32.1672 1150.57 36.3438 1146.43 36.3438 1139.33 32.1672 1139.33 24.8854 1157.67 24.8854Z"/><path d="M1153.08 30.0417C1153.08 32.573 1151.03 34.625 1148.5 34.625 1145.97 34.625 1143.92 32.573 1143.92 30.0417 1143.92 27.5104 1145.97 25.4583 1148.5 25.4583 1151.03 25.4583 1153.08 27.5104 1153.08 30.0417Z"/></g></g></g><g filter="url(#fx11)" transform="translate(20 12)"><g><path d="M7.89 14.6885C7.89 11.0111 10.8711 8.03 14.5485 8.03L216.451 8.03C220.129 8.03 223.11 11.0111 223.11 14.6885L223.11 100.311C223.11 103.989 220.129 106.97 216.451 106.97L14.5485 106.97C10.8711 106.97 7.89 103.989 7.89 100.311Z" fill="#FFFFFF" fill-rule="evenodd"/></g></g><path d="M30 27.528C30 23.9227 32.9227 21 36.528 21L234.472 21C238.077 21 241 23.9227 241 27.528L241 111.472C241 115.077 238.077 118 234.472 118L36.528 118C32.9227 118 30 115.077 30 111.472Z" fill="#FFFFFF" fill-rule="evenodd"/><g><g><g><path d="M58.6625 10.5625C58.6625 14.1524 55.7523 17.0625 52.1625 17.0625 48.5726 17.0625 45.6625 14.1524 45.6625 10.5625 45.6625 6.97265 48.5726 4.0625 52.1625 4.0625 55.7523 4.0625 58.6625 6.97265 58.6625 10.5625Z" transform="matrix(1 0 0 1.01282 36 29)"/><path d="M67.925 19.5C66.3 18.6875 64.35 19.2563 63.5375 20.8813L60.6937 26.2437 48.1812 18.3625C47.6938 18.0375 47.125 17.875 46.475 17.875L32.6625 17.875C31.4438 17.875 30.3875 18.525 29.8188 19.5813L24.5375 29.3312C23.6438 30.875 24.2937 32.9062 25.8375 33.7188 26.325 33.9625 26.8937 34.125 27.3813 34.125 28.5187 34.125 29.6562 33.475 30.225 32.4188L34.6125 24.375 39.4062 24.375 25.025 51.1875 11.5375 51.1875C9.75 51.1875 8.2875 52.65 8.2875 54.4375 8.2875 56.225 9.75 57.6875 11.5375 57.6875L26.975 57.6875C28.1938 57.6875 29.25 57.0375 29.8188 55.9813L35.5063 45.5 44.85 54.1937 44.1187 70.525C43.9562 72.3125 45.3375 73.8563 47.125 73.9375 47.2062 73.9375 47.2062 73.9375 47.2875 73.9375 48.9937 73.9375 50.4562 72.5563 50.5375 70.85L51.35 52.975C51.4312 52 51.025 51.1063 50.2938 50.4562L42.4125 43.1437 50.7 27.7062 60.125 33.6375C60.8563 34.125 61.8312 34.2875 62.725 34.0438 63.6188 33.8 64.35 33.2313 64.7562 32.4188L69.225 23.8875C70.1188 22.3438 69.55 20.3938 67.925 19.5Z" transform="matrix(1 0 0 1.01282 36 29)"/></g></g></g></g></svg>